<?xml version="1.0" encoding="utf-8"?>
<!-- Generator: Adobe Illustrator 15.0.0, SVG Export Plug-In  -->
<!DOCTYPE svg PUBLIC "-//W3C//DTD SVG 1.1//EN" "http://www.w3.org/Graphics/SVG/1.1/DTD/svg11.dtd" [
	<!ENTITY ns_flows "http://ns.adobe.com/Flows/1.0/">
]>
<svg version="1.1"
	 xmlns="http://www.w3.org/2000/svg" xmlns:xlink="http://www.w3.org/1999/xlink" xmlns:a="http://ns.adobe.com/AdobeSVGViewerExtensions/3.0/"
	 x="0px" y="0px" width="120px" height="120px" viewBox="-9.339 -9.402 120 120"
	 overflow="visible" enable-background="new -9.339 -9.402 120 120" xml:space="preserve">
<defs>
</defs>
<path d="M30.07,1.356c-0.308,1.348,1.196,0.884,2.16,0.96c-0.528,1.488,1.488,0.432,0.96,1.92c0.64,0,1.28,0,1.92,0
	c0,0.32,0,0.64,0,0.96c1.929-0.168,1.414,2.106,3.12,2.16c-0.233,1.833,0.665,2.535,1.92,2.88c0.071,0.889-0.136,2.056,0.96,1.92
	c0.185,1.255-0.415,3.295,1.2,3.12c0,4.88,0,9.76,0,14.64c0.663,0.137,0.749,0.852,0.96,1.44c5.28,0,10.56,0,15.84,0
	c0.13-4.99-0.278-10.519,0.24-15.12c0.239,0,0.479,0,0.719,0c-0.336-3.377,2.038-4.042,2.161-6.96
	c1.004,0.285,1.074-0.365,0.959-1.2c2.225-0.657,2.613-3.147,4.801-3.84c0.326-0.074,0.199-0.601,0.24-0.96
	c0.871-0.088,2.358,0.439,1.92-0.96c0.783-0.176,2.063,0.144,1.92-0.96c1.256-0.185,3.295,0.415,3.119-1.2
	c3.652,0.107,7.768-0.247,11.041,0.24c-0.01,1.29,1.726,0.834,2.879,0.96c-0.308,1.348,1.197,0.884,2.16,0.96
	c-0.527,1.488,1.487,0.432,0.961,1.92c0.64,0,1.279,0,1.92,0c0.713,1.366,1.406,2.753,3.119,3.12
	c-0.232,1.833,0.666,2.535,1.92,2.88c0.088,0.872-0.438,2.359,0.961,1.92c0.156,1.203-0.332,3.052,0.959,3.12c0.283,4,0.283,8,0,12
	c-1.289-0.01-0.834,1.725-0.959,2.88c-0.32,0-0.641,0-0.961,0c0,0.72,0,1.44,0,2.16c-1.486-0.528-0.433,1.488-1.92,0.96
	c-0.601,2.679-2.274,4.285-4.799,5.04c0.152,1.273-1.787,0.454-1.441,1.92c-1.078,0.121-2.678-0.278-2.639,0.96
	c-0.688,0.105-1.391-0.031-2.16,0.24c-0.395,0.139-0.307,0.845-1.201,0.96c-3.674,0.473-10.389-0.356-14.398,0
	c-0.561,5.12-0.081,11.279-0.24,16.799c5.229,0.134,11.002-0.281,15.84,0.24c0,0.24,0,0.479,0,0.721
	c2.721-0.641,2.526,1.634,5.041,1.199c-0.528,1.487,1.486,0.434,0.959,1.92c0.641,0,1.28,0,1.92,0
	c0.709,1.371,1.547,2.613,3.121,3.121c-0.084,1.684,0.691,2.508,1.92,2.879c0.088,0.873-0.439,2.359,0.959,1.92
	c0.125,1.154-0.33,2.892,0.961,2.881c0.271,4.126,0.271,8.113,0,12.24c-1.291-0.01-0.836,1.726-0.961,2.879c-0.319,0-0.64,0-0.959,0
	c0,0.721,0,1.44,0,2.16c-1.487-0.527-0.434,1.487-1.92,0.961c0.17,0.89-0.41,1.029-0.24,1.92c-2.077,0.481-2.063,3.057-4.561,3.119
	c0.153,1.273-1.785,0.455-1.439,1.92c-0.871,0.088-2.359-0.438-1.92,0.961c-1.203,0.156-3.053-0.332-3.12,0.959
	c-3.601,0-7.2,0-10.8,0c-0.02-1.342-1.896-0.823-3.121-0.959c0-0.32,0-0.641,0-0.961c-0.639,0-1.279,0-1.92,0
	c0-0.319,0-0.64,0-0.959c-0.64,0-1.279,0-1.92,0c0.578-1.457-1.328-0.433-0.959-1.681c-2.278-0.842-2.756-3.485-5.041-4.319
	c-0.152-2.887-2.442-3.637-2.159-6.961c-0.434-0.207-0.752-0.526-0.961-0.959c0-4.641,0-9.28,0-13.92
	c-4.721-0.561-10.479-0.08-15.6-0.24c-0.87-0.07,0.023,1.623-1.2,1.199c-0.129,4.912,0.277,10.357-0.24,14.881
	c-1.29-0.01-0.834,1.726-0.96,2.879c-1.142-0.102-0.819,1.262-0.96,2.16c-1.488-0.527-0.432,1.487-1.92,0.961c0,0.64,0,1.279,0,1.92
	c-2.193,0.445-2.259,3.021-4.8,3.119c0.153,1.273-1.786,0.455-1.44,1.92c-0.872,0.088-2.359-0.438-1.92,0.961
	c-1.155,0.125-2.89-0.33-2.88,0.959c-3.68,0-7.36,0-11.04,0c0.01-1.289-1.725-0.834-2.88-0.959c0-0.32,0-0.641,0-0.961
	c-0.72,0-1.44,0-2.16,0c0-0.319,0-0.64,0-0.959c-0.64,0-1.28,0-1.92,0c0.578-1.457-1.328-0.433-0.96-1.681
	c-1.904-0.575-2.227-2.733-4.08-3.36c0.115-0.834,0.045-1.483-0.96-1.199c-0.027-0.854,0.329-2.09-0.96-1.68
	c-0.141-0.899,0.182-2.263-0.96-2.16c-0.157-1.203,0.332-3.053-0.96-3.12c-0.319-3.144-0.319-6.697,0-9.841
	c1.29,0.011,0.834-1.726,0.96-2.879c1.142,0.102,0.819-1.262,0.96-2.16c0.32,0,0.64,0,0.96,0c0-0.641,0-1.28,0-1.92
	c1.073-0.287,1.882-0.838,1.92-2.16c1.342-0.578,2.406-1.434,2.88-2.881c0.835,0.115,1.485,0.045,1.2-0.959
	c1.72-0.36,3.358-0.803,4.08-2.16c1.01-0.271,3.299,0.738,2.88-0.961c5.04,0,10.08,0,15.12,0c0-5.52,0-11.04,0-16.56
	c-4.51-0.69-10.6,0.2-15.12-0.48c0.01-1.29-1.725-0.834-2.88-0.96c0.102-1.142-1.261-0.819-2.16-0.96c0-0.32,0-0.64,0-0.96
	c-0.64,0-1.28,0-1.92,0c-0.691-2.349-3.583-2.497-4.08-5.04c-1.488,0.528-0.432-1.488-1.92-0.96c-0.088-0.872,0.439-2.359-0.96-1.92
	c-0.141-0.899,0.182-2.262-0.96-2.16c-0.157-1.203,0.332-3.052-0.96-3.12c-0.83-4.671,0.179-8.929,0.96-12.72
	c1.142,0.102,0.819-1.261,0.96-2.16c0.32,0,0.64,0,0.96,0c0-0.64,0-1.28,0-1.92c1.486-0.514,2.306-1.694,2.88-3.12
	c1.415-0.585,2.477-1.523,3.12-2.88c0.872-0.088,2.359,0.439,1.92-0.96c0.889-0.071,2.056,0.136,1.92-0.96
	c1.224-0.136,3.102,0.382,3.12-0.96c3.559-0.014,7.779-0.884,11.04,0c0.072,0.02-0.066,0.667,0,0.72
	C27.89,1.68,29.438,1.083,30.07,1.356z M18.311,11.436c0.308,1.348-1.196,0.884-2.16,0.96c-0.886,1.754-2.319,2.961-3.84,4.08
	c-0.125,1.154,0.33,2.89-0.96,2.88c0,1.28,0,2.56,0,3.84c1.29-0.01,0.834,1.726,0.96,2.88c1.005-0.285,1.075,0.365,0.96,1.2
	c1.41,0.589,2.369,1.631,3.12,2.88c1.117,0.163,2.853-0.292,2.88,0.96c3.638,0.362,7.784,0.217,11.76,0.24
	c0.429-4.12,0.357-9.789,0-13.92c-0.547,0.067-0.902-0.058-0.96-0.48c0-0.56,0-1.12,0-1.68c-1.066-0.213-1.707-0.854-1.92-1.92
	C25.022,12.507,22.724,10.293,18.311,11.436z M77.352,11.436c0.308,1.348-1.197,0.884-2.16,0.96c-0.955,2.726-4.5,2.86-4.08,6.96
	c-0.24,0-0.479,0-0.721,0c0,3.92,0,7.84,0,11.76c3.832,0.483,8.846,0.256,12.721,0c-0.103-1.142,1.261-0.819,2.16-0.96
	c-0.439-1.399,1.047-0.872,1.92-0.96c-0.188-0.826,0.134-1.146,0.959-0.96c0.305-1.616,0.744-3.097,1.92-3.84c0-2.32,0-4.64,0-6.96
	c-1.492,0.453-0.816-1.263-0.959-2.16c-1.066-0.213-1.707-0.854-1.92-1.92C83.939,12.628,81.786,10.271,77.352,11.436z
	 M43.51,42.396c-0.426,0.293-0.049,1.391-1.2,0.96c0,4.96,0,9.919,0,14.88c0.826-0.188,1.146,0.134,0.96,0.959
	c5.28,0,10.56,0,15.84,0c0-5.6,0-11.199,0-16.799C53.91,42.396,48.71,42.396,43.51,42.396z M18.311,70.477
	c0.203,1.162-1.285,0.635-1.92,0.959c-1.119,1.521-2.326,2.955-4.08,3.84c-0.136,1.225,0.382,3.103-0.96,3.121
	c0,1.279,0,2.56,0,3.84c1.29-0.01,0.834,1.726,0.96,2.88c1.005-0.284,1.075,0.364,0.96,1.2c1.41,0.59,2.369,1.631,3.12,2.879
	c1.101,0.101,2.736-0.336,2.64,0.961c1.68,0,3.36,0,5.04,0c-0.308-1.348,1.196-0.885,2.16-0.961
	c-0.439-1.398,1.048-0.871,1.92-0.959c-0.187-0.826,0.134-1.146,0.96-0.961c0.039-1.641,0.683-2.678,1.92-3.119
	c0.357-4.131,0.429-9.801,0-13.92C26.75,70.275,22.245,70.09,18.311,70.477z M83.109,70.477c-3.645-0.979-8.896,0.059-12.719,0
	c0,3.92,0,7.84,0,11.76c0.281,0.037,0.68-0.041,0.719,0.24c-0.272,3.873,3.178,4.022,4.08,6.719c0.721,0,1.44,0,2.16,0
	c0,0.32,0,0.641,0,0.961c1.92,0,3.84,0,5.76,0c-0.452-1.493,1.264-0.817,2.16-0.961c-0.438-1.398,1.049-0.871,1.92-0.959
	c-0.187-0.826,0.135-1.146,0.961-0.961c0.22-1.699,0.793-3.045,1.92-3.84c0-2.319,0-4.641,0-6.959
	c-1.387-0.293-1.727-1.636-1.92-3.121c-0.826,0.188-1.146-0.133-0.961-0.959c-1.226,0.104-2.02-0.222-2.16-1.201
	C84.32,71.953,82.744,70.377,83.109,70.477z"/>
</svg>
